<svg width="27" height="27" viewBox="0 0 27 27" fill="none" xmlns="http://www.w3.org/2000/svg">
<path d="M6.30961 5.61311L17.0732 2.6751L16.5032 1.52293C16.1303 0.774029 15.2207 0.464765 14.4718 0.837701L4.83606 5.61311H6.30961Z" fill="#28C101"/>
<path d="M20.4145 2.76001C20.2811 2.76001 20.1477 2.7782 20.0143 2.81459L17.4856 3.50588L9.76306 5.61313H18.5286H22.3489L21.8759 3.87882C21.694 3.20268 21.0815 2.76001 20.4145 2.76001Z" fill="#28C101"/>
<path d="M23.9286 6.67432H23.5829H23.113H22.643H19.0561H5.87603H4.14778H2.69242H2.42257H1.51903C1.03998 6.67432 0.612465 6.89565 0.333521 7.24433C0.206176 7.40503 0.109152 7.58998 0.0545761 7.79313C0.021224 7.92047 0 8.05388 0 8.19032V8.37224V10.1005V25.0816C0 25.9185 0.679169 26.5976 1.516 26.5976H23.9255C24.7624 26.5976 25.4415 25.9185 25.4415 25.0816V20.852H16.4456C15.0236 20.852 13.8684 19.6968 13.8684 18.2748V16.8861V16.4161V15.9462V14.9032C13.8684 14.2058 14.1473 13.5722 14.5991 13.1083C14.9993 12.6959 15.536 12.4169 16.1363 12.3472C16.2364 12.3351 16.3395 12.329 16.4426 12.329H24.1802H24.6502H25.1202H25.4415V8.19032C25.4446 7.35349 24.7654 6.67432 23.9286 6.67432Z" fill="#28C101"/>
<path d="M26.5059 13.7783C26.3543 13.6388 26.1754 13.5327 25.9753 13.4629C25.8206 13.4114 25.6569 13.3811 25.4841 13.3811H25.4447H25.4144H24.9444H23.2495H16.4457C15.6088 13.3811 14.9297 14.0602 14.9297 14.8971V15.652V16.122V16.592V18.2717C14.9297 19.1085 15.6088 19.7877 16.4457 19.7877H25.4447H25.4841C25.6569 19.7877 25.8206 19.7574 25.9753 19.7058C26.1754 19.6391 26.3543 19.53 26.5059 19.3905C26.8091 19.1146 27.0001 18.7144 27.0001 18.2717V14.8971C27.0001 14.4544 26.8091 14.0541 26.5059 13.7783ZM19.6111 16.8861C19.6111 17.3045 19.2715 17.6441 18.8531 17.6441H18.3498C17.9314 17.6441 17.5918 17.3045 17.5918 16.8861V16.3828C17.5918 16.1402 17.704 15.9249 17.8829 15.7885C18.0132 15.6884 18.174 15.6248 18.3498 15.6248H18.4771H18.8531C19.2715 15.6248 19.6111 15.9643 19.6111 16.3828V16.8861Z" fill="#28C101"/>
</svg>
