<svg width="20" height="14" viewBox="0 0 20 14" fill="none" xmlns="http://www.w3.org/2000/svg">
<path d="M19.0842 9.03834C18.7104 6.83086 18.3369 4.62338 17.9631 2.4159C17.7483 1.14618 16.5148 -0.0866335 15.222 0.00478795C11.5284 0.236205 8.16639 2.42587 4.52374 2.95849C2.78397 3.18757 1.96988 2.34229 1.97306 2.36796C1.81843 2.21502 1.60122 2.14163 1.42665 2.17897C1.25187 2.21672 1.15663 2.36054 1.18845 2.54911C1.55689 4.72625 1.92554 6.90361 2.29399 9.08076C2.50886 10.3505 3.74231 11.5831 5.03515 11.4919C8.7287 11.2607 12.0907 9.07079 15.7334 8.53817C17.505 8.30993 18.2478 9.18873 18.2658 9.18363C18.3757 9.31727 18.5299 9.40042 18.682 9.42142C18.7301 9.42799 18.7781 9.4282 18.8241 9.42163C19.0156 9.39426 19.1179 9.23815 19.0842 9.03834ZM11.2225 8.46435C9.86797 8.81731 8.43684 7.82589 8.02597 6.24945C7.6151 4.67322 8.3802 3.10909 9.73477 2.75613C11.0893 2.40317 12.5205 3.3946 12.9313 4.97103C13.3422 6.54726 12.5771 8.11118 11.2225 8.46435Z" fill="white"/>
<path d="M10.7347 7.71705L10.6431 7.36494C10.021 7.43175 9.71574 7.07922 9.57002 6.58435L10.316 6.38985C10.3909 6.6342 10.511 6.7935 10.7579 6.72923C10.9469 6.68002 11.0111 6.51733 10.9604 6.32282C10.8987 6.08631 10.7661 5.9864 10.3968 5.92553C9.68477 5.81926 9.35875 5.62369 9.21239 5.06158C9.08364 4.56778 9.27157 4.12616 9.74332 3.9134L9.67226 3.6402L10.1977 3.50317L10.2687 3.77638C10.8003 3.72759 11.1019 4.00249 11.2493 4.52514L10.5296 4.71265C10.4601 4.46724 10.3313 4.36033 10.1317 4.41251C9.9531 4.45896 9.89519 4.6032 9.94461 4.7922C9.99658 4.9918 10.137 5.07876 10.5341 5.13794C11.2277 5.23764 11.5607 5.48199 11.7016 6.02289C11.8371 6.54299 11.7007 6.98822 11.167 7.22261L11.2601 7.57981L10.7347 7.71705Z" fill="white"/>
<path d="M17.7223 9.81359C17.7096 9.80086 17.6965 9.78898 17.6842 9.77583C17.6831 9.77477 17.6818 9.77371 17.6808 9.77286C17.3672 9.4863 16.8783 9.32848 16.3041 9.32848C16.1578 9.32848 16.0038 9.33867 15.8462 9.3586C14.2644 9.59087 12.7412 10.1511 11.1285 10.7439C9.2021 11.4524 7.21013 12.1848 5.08983 12.3182C5.02683 12.3227 4.96277 12.3248 4.89956 12.3248C4.09798 12.3248 3.29406 11.9772 2.63566 11.3459C2.03028 10.7653 1.60839 9.99028 1.47773 9.21903L1.10928 7.04188L0.60657 4.07355C0.486937 4.01416 0.35691 3.99167 0.244277 4.01564C0.0694948 4.0534 -0.0257448 4.19721 0.00607239 4.38578C0.374516 6.56293 0.743172 8.74029 1.11162 10.9174C1.32649 12.1872 2.55994 13.4198 3.85278 13.3285C7.54633 13.0971 10.9084 10.9075 14.551 10.3748C16.3226 10.1466 17.0654 11.0254 17.0834 11.0203C17.1933 11.1539 17.3475 11.2371 17.4996 11.2581C17.5478 11.2647 17.5957 11.2649 17.6417 11.2583C17.8333 11.2309 17.9355 11.0746 17.9018 10.875C17.842 10.5212 17.7821 10.1674 17.7223 9.81359Z" fill="white"/>
</svg>
