<svg width="16" height="16" viewBox="0 0 16 16" fill="none" xmlns="http://www.w3.org/2000/svg">
<path d="M13.8 7.55692C13.8023 8.42427 13.5996 9.27988 13.2086 10.0541C12.7449 10.9818 12.0321 11.7621 11.15 12.3076C10.268 12.8531 9.25142 13.1422 8.21429 13.1426C7.34695 13.1449 6.49134 12.9423 5.71715 12.5512L1.97144 13.7998L3.22001 10.0541C2.82896 9.27988 2.62632 8.42427 2.62858 7.55692C2.62898 6.51979 2.91812 5.50326 3.46362 4.62117C4.00912 3.73909 4.78943 3.0263 5.71715 2.56264C6.49134 2.17159 7.34695 1.96895 8.21429 1.97121H8.54286C9.91258 2.04678 11.2063 2.62491 12.1763 3.59492C13.1463 4.56492 13.7244 5.85864 13.8 7.22835V7.55692Z" stroke="#28C101" stroke-width="1.31429" stroke-linecap="round" stroke-linejoin="round"/>
</svg>
