<svg width="16" height="16" viewBox="0 0 16 16" fill="none" xmlns="http://www.w3.org/2000/svg">
<g clip-path="url(#clip0)">
<path d="M11.1714 13.8V12.4857C11.1714 11.7886 10.8945 11.12 10.4015 10.6271C9.90858 10.1341 9.23999 9.85718 8.54285 9.85718H3.28571C2.58857 9.85718 1.91998 10.1341 1.42703 10.6271C0.934073 11.12 0.657135 11.7886 0.657135 12.4857V13.8" stroke="#28C101" stroke-width="1.31429" stroke-linecap="round" stroke-linejoin="round"/>
<path d="M5.91428 7.22858C7.366 7.22858 8.54285 6.05173 8.54285 4.60001C8.54285 3.14829 7.366 1.97144 5.91428 1.97144C4.46256 1.97144 3.28571 3.14829 3.28571 4.60001C3.28571 6.05173 4.46256 7.22858 5.91428 7.22858Z" stroke="#28C101" stroke-width="1.31429" stroke-linecap="round" stroke-linejoin="round"/>
<path d="M15.1143 13.7998V12.4855C15.1138 11.9031 14.92 11.3373 14.5632 10.877C14.2064 10.4167 13.7068 10.088 13.1429 9.94238" stroke="#28C101" stroke-width="1.31429" stroke-linecap="round" stroke-linejoin="round"/>
<path d="M10.5143 2.05688C11.0797 2.20165 11.5808 2.53049 11.9387 2.99155C12.2966 3.4526 12.4909 4.01966 12.4909 4.60331C12.4909 5.18697 12.2966 5.75402 11.9387 6.21508C11.5808 6.67614 11.0797 7.00497 10.5143 7.14974" stroke="#28C101" stroke-width="1.31429" stroke-linecap="round" stroke-linejoin="round"/>
</g>
<defs>
<clipPath id="clip0">
<rect width="15.7714" height="15.7714" fill="white"/>
</clipPath>
</defs>
</svg>
