<svg width="16" height="16" viewBox="0 0 16 16" fill="none" xmlns="http://www.w3.org/2000/svg">
<g clip-path="url(#clip0)">
<path d="M13.6949 3.02941C13.3592 2.69362 12.9607 2.42724 12.5221 2.2455C12.0835 2.06376 11.6134 1.97021 11.1386 1.97021C10.6638 1.97021 10.1937 2.06376 9.75506 2.2455C9.31644 2.42724 8.91793 2.69362 8.58229 3.02941L7.88572 3.72599L7.18915 3.02941C6.51118 2.35145 5.59166 1.97057 4.63286 1.97057C3.67407 1.97057 2.75455 2.35145 2.07658 3.02941C1.39861 3.70738 1.01773 4.62691 1.01773 5.5857C1.01773 6.54449 1.39861 7.46402 2.07658 8.14199L2.77315 8.83856L7.88572 13.9511L12.9983 8.83856L13.6949 8.14199C14.0307 7.80635 14.297 7.40783 14.4788 6.96922C14.6605 6.5306 14.7541 6.06048 14.7541 5.5857C14.7541 5.11092 14.6605 4.6408 14.4788 4.20218C14.297 3.76357 14.0307 3.36505 13.6949 3.02941V3.02941Z" stroke="#28C101" stroke-width="1.31429" stroke-linecap="round" stroke-linejoin="round"/>
</g>
<defs>
<clipPath id="clip0">
<rect width="15.7714" height="15.7714" fill="white"/>
</clipPath>
</defs>
</svg>
