<svg width="95" height="88" viewBox="0 0 95 88" fill="none" xmlns="http://www.w3.org/2000/svg">
<path d="M94.5163 0.352726C94.0934 -0.018508 93.4916 -0.104637 92.9816 0.132146L0.821713 42.9895C0.325555 43.2203 0.00604893 43.7157 8.48152e-05 44.2632C-0.0058793 44.8107 0.303119 45.3129 0.794449 45.5543L26.8755 58.365C27.3538 58.6 27.9241 58.5469 28.3512 58.2274L53.7093 39.2581L33.8022 59.7527C33.5182 60.0452 33.3733 60.4457 33.4045 60.8522L35.3866 86.6876C35.4306 87.2601 35.8141 87.7496 36.3591 87.9289C36.5048 87.9767 36.6544 88 36.8024 88C37.2082 88 37.603 87.8258 37.8776 87.5074L51.7206 71.4522L68.8334 79.6359C69.2049 79.8135 69.6349 79.8209 70.0123 79.6566C70.3898 79.492 70.6772 79.172 70.8004 78.7791L94.9347 1.84704C95.1034 1.3098 94.9389 0.72396 94.5163 0.352726Z" fill="#28C101"/>
</svg>
